# MagicaVoxel @ Ephtracy

# group
o 

# material
mtllib 128x128x128.mtl
usemtl palette

# normals
vn -1 0 0
vn 1 0 0
vn 0 0 1
vn 0 0 -1
vn 0 -1 0
vn 0 1 0

# texcoords
vt 0.970703 0.5
vt 0.982422 0.5

# verts
v -6.4 0 6.4
v -6.4 0 -6.4
v -6.4 0.2 6.2
v -6.4 0.2 -6.2
v -6.4 0.4 6
v -6.4 0.4 5.4
v -6.4 0.4 5.2
v -6.4 0.4 4.6
v -6.4 0.4 4.4
v -6.4 0.4 4.2
v -6.4 0.6 5.8
v -6.4 0.6 5.6
v -6.4 0.6 5.2
v -6.4 0.6 4.8
v -6.4 0.8 5.8
v -6.4 0.8 5.6
v -6.4 0.8 5.2
v -6.4 0.8 4.8
v -6.4 1 5.8
v -6.4 1 5.6
v -6.4 1 5
v -6.4 1 4.6
v -6.4 1.2 5.8
v -6.4 1.2 5.6
v -6.4 1.2 5
v -6.4 1.2 4.6
v -6.4 1.4 6
v -6.4 1.4 5.4
v -6.4 1.4 5.2
v -6.4 1.4 4.6
v -6.4 1.4 4.4
v -6.4 1.4 4.2
v -6.4 12.6 6.2
v -6.4 12.6 -6.2
v -6.4 12.8 6.4
v -6.4 12.8 -6.4
v 6.4 0 6.4
v 6.4 0 -6.4
v 6.4 0.2 6.2
v 6.4 0.2 -6.2
v 6.4 0.4 -4.2
v 6.4 0.4 -4.4
v 6.4 0.4 -4.6
v 6.4 0.4 -5.2
v 6.4 0.4 -5.4
v 6.4 0.4 -6
v 6.4 0.6 -4.8
v 6.4 0.6 -5.2
v 6.4 0.6 -5.6
v 6.4 0.6 -5.8
v 6.4 0.8 -4.8
v 6.4 0.8 -5.2
v 6.4 0.8 -5.6
v 6.4 0.8 -5.8
v 6.4 1 -4.6
v 6.4 1 -5
v 6.4 1 -5.6
v 6.4 1 -5.8
v 6.4 1.2 -4.6
v 6.4 1.2 -5
v 6.4 1.2 -5.6
v 6.4 1.2 -5.8
v 6.4 1.4 -4.2
v 6.4 1.4 -4.4
v 6.4 1.4 -4.6
v 6.4 1.4 -5.2
v 6.4 1.4 -5.4
v 6.4 1.4 -6
v 6.4 12.6 6.2
v 6.4 12.6 -6.2
v 6.4 12.8 6.4
v 6.4 12.8 -6.4
v -6.4 0 6.4
v -6.4 12.8 6.4
v -6.2 0.2 6.4
v -6.2 12.6 6.4
v 4.2 0.4 6.4
v 4.2 1.4 6.4
v 4.4 0.4 6.4
v 4.4 1.4 6.4
v 4.6 0.4 6.4
v 4.6 1 6.4
v 4.6 1.2 6.4
v 4.6 1.4 6.4
v 4.8 0.6 6.4
v 4.8 0.8 6.4
v 5 1 6.4
v 5 1.2 6.4
v 5.2 0.4 6.4
v 5.2 0.6 6.4
v 5.2 0.8 6.4
v 5.2 1.4 6.4
v 5.4 0.4 6.4
v 5.4 1.4 6.4
v 5.6 0.6 6.4
v 5.6 0.8 6.4
v 5.6 1 6.4
v 5.6 1.2 6.4
v 5.8 0.6 6.4
v 5.8 0.8 6.4
v 5.8 1 6.4
v 5.8 1.2 6.4
v 6 0.4 6.4
v 6 1.4 6.4
v 6.2 0.2 6.4
v 6.2 12.6 6.4
v 6.4 0 6.4
v 6.4 12.8 6.4
v -6.4 0 -6.4
v -6.4 12.8 -6.4
v -6.2 0.2 -6.4
v -6.2 12.6 -6.4
v -6 0.4 -6.4
v -6 1.4 -6.4
v -5.8 0.6 -6.4
v -5.8 0.8 -6.4
v -5.8 1 -6.4
v -5.8 1.2 -6.4
v -5.6 0.6 -6.4
v -5.6 0.8 -6.4
v -5.6 1 -6.4
v -5.6 1.2 -6.4
v -5.4 0.4 -6.4
v -5.4 1.4 -6.4
v -5.2 0.4 -6.4
v -5.2 0.6 -6.4
v -5.2 0.8 -6.4
v -5.2 1.4 -6.4
v -5 1 -6.4
v -5 1.2 -6.4
v -4.8 0.6 -6.4
v -4.8 0.8 -6.4
v -4.6 0.4 -6.4
v -4.6 1 -6.4
v -4.6 1.2 -6.4
v -4.6 1.4 -6.4
v -4.4 0.4 -6.4
v -4.4 1.4 -6.4
v -4.2 0.4 -6.4
v -4.2 1.4 -6.4
v 6.2 0.2 -6.4
v 6.2 12.6 -6.4
v 6.4 0 -6.4
v 6.4 12.8 -6.4
v -6.4 0 6.4
v 6.4 0 6.4
v -6.2 0 6.2
v 6.2 0 6.2
v -6.2 0 -6.2
v 6.2 0 -6.2
v -6.4 0 -6.4
v 6.4 0 -6.4
v -6.4 12.8 6.4
v 6.4 12.8 6.4
v -6.2 12.8 6.2
v 6.2 12.8 6.2
v -6.2 12.8 -6.2
v 6.2 12.8 -6.2
v -6.4 12.8 -6.4
v 6.4 12.8 -6.4

# faces
f 3/2/1 2/2/1 1/2/1
f 4/2/1 2/2/1 3/2/1
f 5/1/1 4/1/1 3/1/1
f 6/1/1 4/1/1 5/1/1
f 7/1/1 4/1/1 6/1/1
f 8/1/1 4/1/1 7/1/1
f 9/1/1 4/1/1 8/1/1
f 10/1/1 4/1/1 9/1/1
f 11/2/1 6/2/1 5/2/1
f 12/2/1 6/2/1 11/2/1
f 13/1/1 7/1/1 6/1/1
f 13/2/1 8/2/1 7/2/1
f 14/2/1 8/2/1 13/2/1
f 15/1/1 12/1/1 11/1/1
f 15/2/1 11/2/1 5/2/1
f 16/2/1 6/2/1 12/2/1
f 16/1/1 12/1/1 15/1/1
f 17/1/1 14/1/1 13/1/1
f 17/1/1 13/1/1 6/1/1
f 18/2/1 8/2/1 14/2/1
f 18/1/1 14/1/1 17/1/1
f 19/2/1 15/2/1 5/2/1
f 19/2/1 16/2/1 15/2/1
f 20/2/1 6/2/1 16/2/1
f 20/2/1 16/2/1 19/2/1
f 21/2/1 18/2/1 17/2/1
f 22/2/1 8/2/1 18/2/1
f 22/2/1 18/2/1 21/2/1
f 22/1/1 9/1/1 8/1/1
f 23/1/1 20/1/1 19/1/1
f 23/2/1 19/2/1 5/2/1
f 24/2/1 6/2/1 20/2/1
f 24/1/1 20/1/1 23/1/1
f 25/2/1 21/2/1 17/2/1
f 25/1/1 22/1/1 21/1/1
f 26/1/1 9/1/1 22/1/1
f 26/1/1 22/1/1 25/1/1
f 27/1/1 5/1/1 3/1/1
f 27/2/1 24/2/1 23/2/1
f 27/2/1 23/2/1 5/2/1
f 28/2/1 6/2/1 24/2/1
f 28/2/1 24/2/1 27/2/1
f 28/1/1 17/1/1 6/1/1
f 29/2/1 26/2/1 25/2/1
f 29/1/1 17/1/1 28/1/1
f 29/2/1 25/2/1 17/2/1
f 30/1/1 9/1/1 26/1/1
f 30/2/1 26/2/1 29/2/1
f 31/2/1 10/2/1 9/2/1
f 31/1/1 9/1/1 30/1/1
f 32/1/1 4/1/1 10/1/1
f 32/2/1 10/2/1 31/2/1
f 33/2/1 3/2/1 1/2/1
f 33/1/1 29/1/1 28/1/1
f 33/1/1 32/1/1 31/1/1
f 33/1/1 30/1/1 29/1/1
f 33/1/1 28/1/1 27/1/1
f 33/1/1 27/1/1 3/1/1
f 33/1/1 31/1/1 30/1/1
f 34/1/1 4/1/1 32/1/1
f 34/1/1 32/1/1 33/1/1
f 34/2/1 2/2/1 4/2/1
f 35/2/1 33/2/1 1/2/1
f 35/2/1 34/2/1 33/2/1
f 36/2/1 2/2/1 34/2/1
f 36/2/1 34/2/1 35/2/1
f 37/2/2 38/2/2 39/2/2
f 39/2/2 38/2/2 40/2/2
f 39/1/2 40/1/2 41/1/2
f 41/1/2 40/1/2 42/1/2
f 42/1/2 40/1/2 43/1/2
f 43/1/2 40/1/2 44/1/2
f 44/1/2 40/1/2 45/1/2
f 45/1/2 40/1/2 46/1/2
f 43/2/2 44/2/2 47/2/2
f 44/1/2 45/1/2 48/1/2
f 47/2/2 44/2/2 48/2/2
f 45/2/2 46/2/2 49/2/2
f 49/2/2 46/2/2 50/2/2
f 43/2/2 47/2/2 51/2/2
f 47/1/2 48/1/2 51/1/2
f 48/1/2 45/1/2 52/1/2
f 51/1/2 48/1/2 52/1/2
f 49/1/2 50/1/2 53/1/2
f 45/2/2 49/2/2 53/2/2
f 50/2/2 46/2/2 54/2/2
f 53/1/2 50/1/2 54/1/2
f 42/1/2 43/1/2 55/1/2
f 43/2/2 51/2/2 55/2/2
f 51/2/2 52/2/2 55/2/2
f 55/2/2 52/2/2 56/2/2
f 45/2/2 53/2/2 57/2/2
f 53/2/2 54/2/2 57/2/2
f 54/2/2 46/2/2 58/2/2
f 57/2/2 54/2/2 58/2/2
f 55/1/2 56/1/2 59/1/2
f 42/1/2 55/1/2 59/1/2
f 56/2/2 52/2/2 60/2/2
f 59/1/2 56/1/2 60/1/2
f 45/2/2 57/2/2 61/2/2
f 57/1/2 58/1/2 61/1/2
f 58/2/2 46/2/2 62/2/2
f 61/1/2 58/1/2 62/1/2
f 39/1/2 41/1/2 63/1/2
f 41/2/2 42/2/2 63/2/2
f 42/1/2 59/1/2 64/1/2
f 63/2/2 42/2/2 64/2/2
f 59/2/2 60/2/2 65/2/2
f 64/1/2 59/1/2 65/1/2
f 60/2/2 52/2/2 66/2/2
f 65/2/2 60/2/2 66/2/2
f 52/1/2 45/1/2 66/1/2
f 61/2/2 62/2/2 67/2/2
f 66/1/2 45/1/2 67/1/2
f 45/2/2 61/2/2 67/2/2
f 62/2/2 46/2/2 68/2/2
f 67/2/2 62/2/2 68/2/2
f 46/1/2 40/1/2 68/1/2
f 37/2/2 39/2/2 69/2/2
f 66/1/2 67/1/2 69/1/2
f 67/1/2 68/1/2 69/1/2
f 39/1/2 63/1/2 69/1/2
f 63/1/2 64/1/2 69/1/2
f 64/1/2 65/1/2 69/1/2
f 65/1/2 66/1/2 69/1/2
f 68/1/2 40/1/2 70/1/2
f 69/1/2 68/1/2 70/1/2
f 40/2/2 38/2/2 70/2/2
f 37/2/2 69/2/2 71/2/2
f 69/2/2 70/2/2 71/2/2
f 70/2/2 38/2/2 72/2/2
f 71/2/2 70/2/2 72/2/2
f 75/2/3 74/2/3 73/2/3
f 76/2/3 74/2/3 75/2/3
f 77/1/3 76/1/3 75/1/3
f 78/1/3 76/1/3 77/1/3
f 79/1/3 77/1/3 75/1/3
f 79/2/3 78/2/3 77/2/3
f 80/1/3 76/1/3 78/1/3
f 80/2/3 78/2/3 79/2/3
f 81/1/3 79/1/3 75/1/3
f 81/1/3 80/1/3 79/1/3
f 82/1/3 80/1/3 81/1/3
f 83/1/3 80/1/3 82/1/3
f 84/1/3 76/1/3 80/1/3
f 84/1/3 80/1/3 83/1/3
f 85/2/3 82/2/3 81/2/3
f 86/2/3 82/2/3 85/2/3
f 87/1/3 83/1/3 82/1/3
f 87/2/3 82/2/3 86/2/3
f 88/2/3 84/2/3 83/2/3
f 88/1/3 83/1/3 87/1/3
f 89/1/3 81/1/3 75/1/3
f 89/2/3 85/2/3 81/2/3
f 90/1/3 86/1/3 85/1/3
f 90/2/3 85/2/3 89/2/3
f 91/2/3 87/2/3 86/2/3
f 91/1/3 86/1/3 90/1/3
f 91/2/3 88/2/3 87/2/3
f 92/2/3 84/2/3 88/2/3
f 92/2/3 88/2/3 91/2/3
f 92/1/3 76/1/3 84/1/3
f 93/1/3 89/1/3 75/1/3
f 93/1/3 91/1/3 90/1/3
f 93/1/3 92/1/3 91/1/3
f 93/1/3 90/1/3 89/1/3
f 94/1/3 76/1/3 92/1/3
f 94/1/3 92/1/3 93/1/3
f 95/2/3 94/2/3 93/2/3
f 96/2/3 94/2/3 95/2/3
f 97/2/3 94/2/3 96/2/3
f 98/2/3 94/2/3 97/2/3
f 99/2/3 95/2/3 93/2/3
f 99/1/3 96/1/3 95/1/3
f 100/2/3 97/2/3 96/2/3
f 100/1/3 96/1/3 99/1/3
f 101/1/3 98/1/3 97/1/3
f 101/2/3 97/2/3 100/2/3
f 102/2/3 94/2/3 98/2/3
f 102/1/3 98/1/3 101/1/3
f 103/1/3 93/1/3 75/1/3
f 103/2/3 101/2/3 100/2/3
f 103/2/3 102/2/3 101/2/3
f 103/2/3 99/2/3 93/2/3
f 103/2/3 100/2/3 99/2/3
f 104/2/3 94/2/3 102/2/3
f 104/2/3 102/2/3 103/2/3
f 104/1/3 76/1/3 94/1/3
f 105/2/3 75/2/3 73/2/3
f 105/1/3 103/1/3 75/1/3
f 105/1/3 104/1/3 103/1/3
f 106/1/3 76/1/3 104/1/3
f 106/1/3 104/1/3 105/1/3
f 106/2/3 74/2/3 76/2/3
f 107/2/3 105/2/3 73/2/3
f 107/2/3 106/2/3 105/2/3
f 108/2/3 74/2/3 106/2/3
f 108/2/3 106/2/3 107/2/3
f 109/2/4 110/2/4 111/2/4
f 111/2/4 110/2/4 112/2/4
f 111/1/4 112/1/4 113/1/4
f 113/1/4 112/1/4 114/1/4
f 113/2/4 114/2/4 115/2/4
f 115/2/4 114/2/4 116/2/4
f 116/2/4 114/2/4 117/2/4
f 117/2/4 114/2/4 118/2/4
f 113/2/4 115/2/4 119/2/4
f 115/1/4 116/1/4 119/1/4
f 116/2/4 117/2/4 120/2/4
f 119/1/4 116/1/4 120/1/4
f 117/1/4 118/1/4 121/1/4
f 120/2/4 117/2/4 121/2/4
f 118/2/4 114/2/4 122/2/4
f 121/1/4 118/1/4 122/1/4
f 111/1/4 113/1/4 123/1/4
f 120/2/4 121/2/4 123/2/4
f 121/2/4 122/2/4 123/2/4
f 113/2/4 119/2/4 123/2/4
f 119/2/4 120/2/4 123/2/4
f 122/2/4 114/2/4 124/2/4
f 123/2/4 122/2/4 124/2/4
f 114/1/4 112/1/4 124/1/4
f 111/1/4 123/1/4 125/1/4
f 123/1/4 124/1/4 125/1/4
f 125/1/4 124/1/4 126/1/4
f 126/1/4 124/1/4 127/1/4
f 124/1/4 112/1/4 128/1/4
f 127/1/4 124/1/4 128/1/4
f 127/2/4 128/2/4 129/2/4
f 129/2/4 128/2/4 130/2/4
f 126/1/4 127/1/4 131/1/4
f 125/2/4 126/2/4 131/2/4
f 127/2/4 129/2/4 132/2/4
f 131/1/4 127/1/4 132/1/4
f 111/1/4 125/1/4 133/1/4
f 125/2/4 131/2/4 133/2/4
f 131/2/4 132/2/4 133/2/4
f 132/2/4 129/2/4 134/2/4
f 133/2/4 132/2/4 134/2/4
f 129/1/4 130/1/4 134/1/4
f 130/2/4 128/2/4 135/2/4
f 134/1/4 130/1/4 135/1/4
f 128/1/4 112/1/4 136/1/4
f 135/2/4 128/2/4 136/2/4
f 133/1/4 134/1/4 137/1/4
f 111/1/4 133/1/4 137/1/4
f 135/1/4 136/1/4 137/1/4
f 134/1/4 135/1/4 137/1/4
f 136/1/4 112/1/4 138/1/4
f 137/1/4 136/1/4 138/1/4
f 111/1/4 137/1/4 139/1/4
f 137/2/4 138/2/4 139/2/4
f 138/1/4 112/1/4 140/1/4
f 139/2/4 138/2/4 140/2/4
f 109/2/4 111/2/4 141/2/4
f 111/1/4 139/1/4 141/1/4
f 139/1/4 140/1/4 141/1/4
f 140/1/4 112/1/4 142/1/4
f 141/1/4 140/1/4 142/1/4
f 112/2/4 110/2/4 142/2/4
f 109/2/4 141/2/4 143/2/4
f 141/2/4 142/2/4 143/2/4
f 142/2/4 110/2/4 144/2/4
f 143/2/4 142/2/4 144/2/4
f 147/2/5 146/2/5 145/2/5
f 148/2/5 146/2/5 147/2/5
f 149/2/5 147/2/5 145/2/5
f 149/1/5 148/1/5 147/1/5
f 150/2/5 146/2/5 148/2/5
f 150/1/5 148/1/5 149/1/5
f 151/2/5 149/2/5 145/2/5
f 151/2/5 150/2/5 149/2/5
f 152/2/5 146/2/5 150/2/5
f 152/2/5 150/2/5 151/2/5
f 153/2/6 154/2/6 155/2/6
f 155/2/6 154/2/6 156/2/6
f 153/2/6 155/2/6 157/2/6
f 155/1/6 156/1/6 157/1/6
f 156/2/6 154/2/6 158/2/6
f 157/1/6 156/1/6 158/1/6
f 153/2/6 157/2/6 159/2/6
f 157/2/6 158/2/6 159/2/6
f 158/2/6 154/2/6 160/2/6
f 159/2/6 158/2/6 160/2/6
